<svg xmlns="http://www.w3.org/2000/svg" xmlns:xlink="http://www.w3.org/1999/xlink" width="360" height="320" viewBox="0 0 360 320"><defs><clipPath id="a"><rect width="360" height="320" fill="none"/></clipPath></defs><g clip-path="url(#a)"><g transform="translate(-1824 -504)"><g transform="translate(1824 504)" fill="none" stroke="#f1b52a" stroke-width="2"><circle cx="8" cy="8" r="8" stroke="none"/><circle cx="8" cy="8" r="7" fill="none"/></g><g transform="translate(1856 528)" fill="none" stroke="#f1b52a" stroke-width="2"><circle cx="8" cy="8" r="8" stroke="none"/><circle cx="8" cy="8" r="7" fill="none"/></g></g><g transform="translate(-1756 -504)"><g transform="translate(1824 504)" fill="none" stroke="#f1b52a" stroke-width="2"><circle cx="8" cy="8" r="8" stroke="none"/><circle cx="8" cy="8" r="7" fill="none"/></g><g transform="translate(1856 528)" fill="none" stroke="#f1b52a" stroke-width="2"><circle cx="8" cy="8" r="8" stroke="none"/><circle cx="8" cy="8" r="7" fill="none"/></g></g><g transform="translate(-1688 -504)"><g transform="translate(1824 504)" fill="none" stroke="#f1b52a" stroke-width="2"><circle cx="8" cy="8" r="8" stroke="none"/><circle cx="8" cy="8" r="7" fill="none"/></g><g transform="translate(1856 528)" fill="none" stroke="#f1b52a" stroke-width="2"><circle cx="8" cy="8" r="8" stroke="none"/><circle cx="8" cy="8" r="7" fill="none"/></g></g><g transform="translate(-1620 -504)"><g transform="translate(1824 504)" fill="none" stroke="#f1b52a" stroke-width="2"><circle cx="8" cy="8" r="8" stroke="none"/><circle cx="8" cy="8" r="7" fill="none"/></g><g transform="translate(1856 528)" fill="none" stroke="#f1b52a" stroke-width="2"><circle cx="8" cy="8" r="8" stroke="none"/><circle cx="8" cy="8" r="7" fill="none"/></g></g><g transform="translate(-1552 -504)"><g transform="translate(1824 504)" fill="none" stroke="#f1b52a" stroke-width="2"><circle cx="8" cy="8" r="8" stroke="none"/><circle cx="8" cy="8" r="7" fill="none"/></g><g transform="translate(1856 528)" fill="none" stroke="#f1b52a" stroke-width="2"><circle cx="8" cy="8" r="8" stroke="none"/><circle cx="8" cy="8" r="7" fill="none"/></g></g><g transform="translate(-1484 -504)"><g transform="translate(1824 504)" fill="none" stroke="#f1b52a" stroke-width="2"><circle cx="8" cy="8" r="8" stroke="none"/><circle cx="8" cy="8" r="7" fill="none"/></g><g transform="translate(1856 528)" fill="none" stroke="#f1b52a" stroke-width="2"><circle cx="8" cy="8" r="8" stroke="none"/><circle cx="8" cy="8" r="7" fill="none"/></g></g><g transform="translate(-1824 -444)"><g transform="translate(1824 504)" fill="none" stroke="#f1b52a" stroke-width="2"><circle cx="8" cy="8" r="8" stroke="none"/><circle cx="8" cy="8" r="7" fill="none"/></g><g transform="translate(1856 528)" fill="none" stroke="#f1b52a" stroke-width="2"><circle cx="8" cy="8" r="8" stroke="none"/><circle cx="8" cy="8" r="7" fill="none"/></g></g><g transform="translate(-1756 -444)"><g transform="translate(1824 504)" fill="none" stroke="#f1b52a" stroke-width="2"><circle cx="8" cy="8" r="8" stroke="none"/><circle cx="8" cy="8" r="7" fill="none"/></g><g transform="translate(1856 528)" fill="none" stroke="#f1b52a" stroke-width="2"><circle cx="8" cy="8" r="8" stroke="none"/><circle cx="8" cy="8" r="7" fill="none"/></g></g><g transform="translate(-1688 -444)"><g transform="translate(1824 504)" fill="none" stroke="#f1b52a" stroke-width="2"><circle cx="8" cy="8" r="8" stroke="none"/><circle cx="8" cy="8" r="7" fill="none"/></g><g transform="translate(1856 528)" fill="none" stroke="#f1b52a" stroke-width="2"><circle cx="8" cy="8" r="8" stroke="none"/><circle cx="8" cy="8" r="7" fill="none"/></g></g><g transform="translate(-1620 -444)"><g transform="translate(1824 504)" fill="none" stroke="#f1b52a" stroke-width="2"><circle cx="8" cy="8" r="8" stroke="none"/><circle cx="8" cy="8" r="7" fill="none"/></g><g transform="translate(1856 528)" fill="none" stroke="#f1b52a" stroke-width="2"><circle cx="8" cy="8" r="8" stroke="none"/><circle cx="8" cy="8" r="7" fill="none"/></g></g><g transform="translate(-1552 -444)"><g transform="translate(1824 504)" fill="none" stroke="#f1b52a" stroke-width="2"><circle cx="8" cy="8" r="8" stroke="none"/><circle cx="8" cy="8" r="7" fill="none"/></g><g transform="translate(1856 528)" fill="none" stroke="#f1b52a" stroke-width="2"><circle cx="8" cy="8" r="8" stroke="none"/><circle cx="8" cy="8" r="7" fill="none"/></g></g><g transform="translate(-1484 -444)"><g transform="translate(1824 504)" fill="none" stroke="#f1b52a" stroke-width="2"><circle cx="8" cy="8" r="8" stroke="none"/><circle cx="8" cy="8" r="7" fill="none"/></g><g transform="translate(1856 528)" fill="none" stroke="#f1b52a" stroke-width="2"><circle cx="8" cy="8" r="8" stroke="none"/><circle cx="8" cy="8" r="7" fill="none"/></g></g><g transform="translate(-1824 -384)"><g transform="translate(1824 504)" fill="none" stroke="#f1b52a" stroke-width="2"><circle cx="8" cy="8" r="8" stroke="none"/><circle cx="8" cy="8" r="7" fill="none"/></g><g transform="translate(1856 528)" fill="none" stroke="#f1b52a" stroke-width="2"><circle cx="8" cy="8" r="8" stroke="none"/><circle cx="8" cy="8" r="7" fill="none"/></g></g><g transform="translate(-1756 -384)"><g transform="translate(1824 504)" fill="none" stroke="#f1b52a" stroke-width="2"><circle cx="8" cy="8" r="8" stroke="none"/><circle cx="8" cy="8" r="7" fill="none"/></g><g transform="translate(1856 528)" fill="none" stroke="#f1b52a" stroke-width="2"><circle cx="8" cy="8" r="8" stroke="none"/><circle cx="8" cy="8" r="7" fill="none"/></g></g><g transform="translate(-1688 -384)"><g transform="translate(1824 504)" fill="none" stroke="#f1b52a" stroke-width="2"><circle cx="8" cy="8" r="8" stroke="none"/><circle cx="8" cy="8" r="7" fill="none"/></g><g transform="translate(1856 528)" fill="none" stroke="#f1b52a" stroke-width="2"><circle cx="8" cy="8" r="8" stroke="none"/><circle cx="8" cy="8" r="7" fill="none"/></g></g><g transform="translate(-1620 -384)"><g transform="translate(1824 504)" fill="none" stroke="#f1b52a" stroke-width="2"><circle cx="8" cy="8" r="8" stroke="none"/><circle cx="8" cy="8" r="7" fill="none"/></g><g transform="translate(1856 528)" fill="none" stroke="#f1b52a" stroke-width="2"><circle cx="8" cy="8" r="8" stroke="none"/><circle cx="8" cy="8" r="7" fill="none"/></g></g><g transform="translate(-1552 -384)"><g transform="translate(1824 504)" fill="none" stroke="#f1b52a" stroke-width="2"><circle cx="8" cy="8" r="8" stroke="none"/><circle cx="8" cy="8" r="7" fill="none"/></g><g transform="translate(1856 528)" fill="none" stroke="#f1b52a" stroke-width="2"><circle cx="8" cy="8" r="8" stroke="none"/><circle cx="8" cy="8" r="7" fill="none"/></g></g><g transform="translate(-1484 -384)"><g transform="translate(1824 504)" fill="none" stroke="#f1b52a" stroke-width="2"><circle cx="8" cy="8" r="8" stroke="none"/><circle cx="8" cy="8" r="7" fill="none"/></g><g transform="translate(1856 528)" fill="none" stroke="#f1b52a" stroke-width="2"><circle cx="8" cy="8" r="8" stroke="none"/><circle cx="8" cy="8" r="7" fill="none"/></g></g><g transform="translate(-1824 -324)"><g transform="translate(1824 504)" fill="none" stroke="#f1b52a" stroke-width="2"><circle cx="8" cy="8" r="8" stroke="none"/><circle cx="8" cy="8" r="7" fill="none"/></g><g transform="translate(1856 528)" fill="none" stroke="#f1b52a" stroke-width="2"><circle cx="8" cy="8" r="8" stroke="none"/><circle cx="8" cy="8" r="7" fill="none"/></g></g><g transform="translate(-1756 -324)"><g transform="translate(1824 504)" fill="none" stroke="#f1b52a" stroke-width="2"><circle cx="8" cy="8" r="8" stroke="none"/><circle cx="8" cy="8" r="7" fill="none"/></g><g transform="translate(1856 528)" fill="none" stroke="#f1b52a" stroke-width="2"><circle cx="8" cy="8" r="8" stroke="none"/><circle cx="8" cy="8" r="7" fill="none"/></g></g><g transform="translate(-1688 -324)"><g transform="translate(1824 504)" fill="none" stroke="#f1b52a" stroke-width="2"><circle cx="8" cy="8" r="8" stroke="none"/><circle cx="8" cy="8" r="7" fill="none"/></g><g transform="translate(1856 528)" fill="none" stroke="#f1b52a" stroke-width="2"><circle cx="8" cy="8" r="8" stroke="none"/><circle cx="8" cy="8" r="7" fill="none"/></g></g><g transform="translate(-1620 -324)"><g transform="translate(1824 504)" fill="none" stroke="#f1b52a" stroke-width="2"><circle cx="8" cy="8" r="8" stroke="none"/><circle cx="8" cy="8" r="7" fill="none"/></g><g transform="translate(1856 528)" fill="none" stroke="#f1b52a" stroke-width="2"><circle cx="8" cy="8" r="8" stroke="none"/><circle cx="8" cy="8" r="7" fill="none"/></g></g><g transform="translate(-1552 -324)"><g transform="translate(1824 504)" fill="none" stroke="#f1b52a" stroke-width="2"><circle cx="8" cy="8" r="8" stroke="none"/><circle cx="8" cy="8" r="7" fill="none"/></g><g transform="translate(1856 528)" fill="none" stroke="#f1b52a" stroke-width="2"><circle cx="8" cy="8" r="8" stroke="none"/><circle cx="8" cy="8" r="7" fill="none"/></g></g><g transform="translate(-1484 -324)"><g transform="translate(1824 504)" fill="none" stroke="#f1b52a" stroke-width="2"><circle cx="8" cy="8" r="8" stroke="none"/><circle cx="8" cy="8" r="7" fill="none"/></g><g transform="translate(1856 528)" fill="none" stroke="#f1b52a" stroke-width="2"><circle cx="8" cy="8" r="8" stroke="none"/><circle cx="8" cy="8" r="7" fill="none"/></g></g><g transform="translate(-1824 -264)"><g transform="translate(1824 504)" fill="none" stroke="#f1b52a" stroke-width="2"><circle cx="8" cy="8" r="8" stroke="none"/><circle cx="8" cy="8" r="7" fill="none"/></g><g transform="translate(1856 528)" fill="none" stroke="#f1b52a" stroke-width="2"><circle cx="8" cy="8" r="8" stroke="none"/><circle cx="8" cy="8" r="7" fill="none"/></g></g><g transform="translate(-1756 -264)"><g transform="translate(1824 504)" fill="none" stroke="#f1b52a" stroke-width="2"><circle cx="8" cy="8" r="8" stroke="none"/><circle cx="8" cy="8" r="7" fill="none"/></g><g transform="translate(1856 528)" fill="none" stroke="#f1b52a" stroke-width="2"><circle cx="8" cy="8" r="8" stroke="none"/><circle cx="8" cy="8" r="7" fill="none"/></g></g><g transform="translate(-1688 -264)"><g transform="translate(1824 504)" fill="none" stroke="#f1b52a" stroke-width="2"><circle cx="8" cy="8" r="8" stroke="none"/><circle cx="8" cy="8" r="7" fill="none"/></g><g transform="translate(1856 528)" fill="none" stroke="#f1b52a" stroke-width="2"><circle cx="8" cy="8" r="8" stroke="none"/><circle cx="8" cy="8" r="7" fill="none"/></g></g><g transform="translate(-1620 -264)"><g transform="translate(1824 504)" fill="none" stroke="#f1b52a" stroke-width="2"><circle cx="8" cy="8" r="8" stroke="none"/><circle cx="8" cy="8" r="7" fill="none"/></g><g transform="translate(1856 528)" fill="none" stroke="#f1b52a" stroke-width="2"><circle cx="8" cy="8" r="8" stroke="none"/><circle cx="8" cy="8" r="7" fill="none"/></g></g><g transform="translate(-1552 -264)"><g transform="translate(1824 504)" fill="none" stroke="#f1b52a" stroke-width="2"><circle cx="8" cy="8" r="8" stroke="none"/><circle cx="8" cy="8" r="7" fill="none"/></g><g transform="translate(1856 528)" fill="none" stroke="#f1b52a" stroke-width="2"><circle cx="8" cy="8" r="8" stroke="none"/><circle cx="8" cy="8" r="7" fill="none"/></g></g><g transform="translate(-1484 -264)"><g transform="translate(1824 504)" fill="none" stroke="#f1b52a" stroke-width="2"><circle cx="8" cy="8" r="8" stroke="none"/><circle cx="8" cy="8" r="7" fill="none"/></g><g transform="translate(1856 528)" fill="none" stroke="#f1b52a" stroke-width="2"><circle cx="8" cy="8" r="8" stroke="none"/><circle cx="8" cy="8" r="7" fill="none"/></g></g><g transform="translate(-1824 -204)"><g transform="translate(1824 504)" fill="none" stroke="#f1b52a" stroke-width="2"><circle cx="8" cy="8" r="8" stroke="none"/><circle cx="8" cy="8" r="7" fill="none"/></g><g transform="translate(1856 528)" fill="none" stroke="#f1b52a" stroke-width="2"><circle cx="8" cy="8" r="8" stroke="none"/><circle cx="8" cy="8" r="7" fill="none"/></g></g><g transform="translate(-1756 -204)"><g transform="translate(1824 504)" fill="none" stroke="#f1b52a" stroke-width="2"><circle cx="8" cy="8" r="8" stroke="none"/><circle cx="8" cy="8" r="7" fill="none"/></g><g transform="translate(1856 528)" fill="none" stroke="#f1b52a" stroke-width="2"><circle cx="8" cy="8" r="8" stroke="none"/><circle cx="8" cy="8" r="7" fill="none"/></g></g><g transform="translate(-1688 -204)"><g transform="translate(1824 504)" fill="none" stroke="#f1b52a" stroke-width="2"><circle cx="8" cy="8" r="8" stroke="none"/><circle cx="8" cy="8" r="7" fill="none"/></g><g transform="translate(1856 528)" fill="none" stroke="#f1b52a" stroke-width="2"><circle cx="8" cy="8" r="8" stroke="none"/><circle cx="8" cy="8" r="7" fill="none"/></g></g><g transform="translate(-1620 -204)"><g transform="translate(1824 504)" fill="none" stroke="#f1b52a" stroke-width="2"><circle cx="8" cy="8" r="8" stroke="none"/><circle cx="8" cy="8" r="7" fill="none"/></g><g transform="translate(1856 528)" fill="none" stroke="#f1b52a" stroke-width="2"><circle cx="8" cy="8" r="8" stroke="none"/><circle cx="8" cy="8" r="7" fill="none"/></g></g><g transform="translate(-1552 -204)"><g transform="translate(1824 504)" fill="none" stroke="#f1b52a" stroke-width="2"><circle cx="8" cy="8" r="8" stroke="none"/><circle cx="8" cy="8" r="7" fill="none"/></g><g transform="translate(1856 528)" fill="none" stroke="#f1b52a" stroke-width="2"><circle cx="8" cy="8" r="8" stroke="none"/><circle cx="8" cy="8" r="7" fill="none"/></g></g><g transform="translate(-1484 -204)"><g transform="translate(1824 504)" fill="none" stroke="#f1b52a" stroke-width="2"><circle cx="8" cy="8" r="8" stroke="none"/><circle cx="8" cy="8" r="7" fill="none"/></g><g transform="translate(1856 528)" fill="none" stroke="#f1b52a" stroke-width="2"><circle cx="8" cy="8" r="8" stroke="none"/><circle cx="8" cy="8" r="7" fill="none"/></g></g></g></svg>