<svg xmlns="http://www.w3.org/2000/svg" xmlns:xlink="http://www.w3.org/1999/xlink" width="340" height="180" viewBox="0 0 340 180"><defs><clipPath id="a"><rect width="340" height="180" transform="translate(1001 2614)" fill="#fff" stroke="#707070" stroke-width="1"/></clipPath><clipPath id="b"><rect width="466" height="463" transform="translate(1643.994 2244.638)" fill="none"/></clipPath><clipPath id="c"><rect width="529.666" height="503.172" transform="translate(1631.55 2216.762)" fill="none"/></clipPath><clipPath id="d"><rect width="529.666" height="503.172" transform="translate(1584.145 2216.762)" fill="none"/></clipPath></defs><g transform="translate(-1001 -2614)" clip-path="url(#a)"><g transform="translate(-642.994 209.361)"><g clip-path="url(#b)"><g clip-path="url(#c)"><line y1="504" x2="504" transform="translate(1632.257 2217.469)" fill="none" stroke="#27bae1" stroke-width="2"/><line y1="504" x2="504" transform="translate(1658.257 2217.469)" fill="none" stroke="#27bae1" stroke-width="2"/><line y1="504" x2="504" transform="translate(1684.257 2217.469)" fill="none" stroke="#27bae1" stroke-width="2"/><line y1="504" x2="504" transform="translate(1710.257 2217.469)" fill="none" stroke="#27bae1" stroke-width="2"/><line y1="504" x2="504" transform="translate(1736.257 2217.469)" fill="none" stroke="#27bae1" stroke-width="2"/><line y1="504" x2="504" transform="translate(1762.257 2217.469)" fill="none" stroke="#27bae1" stroke-width="2"/><line y1="504" x2="504" transform="translate(1788.257 2217.469)" fill="none" stroke="#27bae1" stroke-width="2"/><line y1="504" x2="504" transform="translate(1814.257 2217.469)" fill="none" stroke="#27bae1" stroke-width="2"/><line y1="504" x2="504" transform="translate(1840.257 2217.469)" fill="none" stroke="#27bae1" stroke-width="2"/><line y1="504" x2="504" transform="translate(1866.257 2217.469)" fill="none" stroke="#27bae1" stroke-width="2"/><line y1="504" x2="504" transform="translate(1892.257 2217.469)" fill="none" stroke="#27bae1" stroke-width="2"/><line y1="504" x2="504" transform="translate(1918.257 2217.469)" fill="none" stroke="#27bae1" stroke-width="2"/><line y1="504" x2="504" transform="translate(1944.257 2217.469)" fill="none" stroke="#27bae1" stroke-width="2"/><line y1="504" x2="504" transform="translate(1970.257 2217.469)" fill="none" stroke="#27bae1" stroke-width="2"/><line y1="504" x2="504" transform="translate(1996.257 2217.469)" fill="none" stroke="#27bae1" stroke-width="2"/><line y1="504" x2="504" transform="translate(2022.257 2217.469)" fill="none" stroke="#27bae1" stroke-width="2"/><line y1="504" x2="504" transform="translate(2048.257 2217.469)" fill="none" stroke="#27bae1" stroke-width="2"/><line y1="504" x2="504" transform="translate(2074.257 2217.469)" fill="none" stroke="#27bae1" stroke-width="2"/><line y1="504" x2="504" transform="translate(2100.257 2217.469)" fill="none" stroke="#27bae1" stroke-width="2"/><line y1="504" x2="504" transform="translate(2126.257 2217.469)" fill="none" stroke="#27bae1" stroke-width="2"/><line y1="504" x2="504" transform="translate(2152.257 2217.469)" fill="none" stroke="#27bae1" stroke-width="2"/></g><g clip-path="url(#d)"><line x1="504" y2="504" transform="translate(1609.104 2215.228)" fill="none" stroke="#27bae1" stroke-width="2"/><line x1="504" y2="504" transform="translate(1583.104 2215.228)" fill="none" stroke="#27bae1" stroke-width="2"/><line x1="504" y2="504" transform="translate(1557.104 2215.228)" fill="none" stroke="#27bae1" stroke-width="2"/><line x1="504" y2="504" transform="translate(1531.104 2215.228)" fill="none" stroke="#27bae1" stroke-width="2"/><line x1="504" y2="504" transform="translate(1505.104 2215.228)" fill="none" stroke="#27bae1" stroke-width="2"/><line x1="504" y2="504" transform="translate(1479.104 2215.228)" fill="none" stroke="#27bae1" stroke-width="2"/><line x1="504" y2="504" transform="translate(1453.104 2215.228)" fill="none" stroke="#27bae1" stroke-width="2"/><line x1="504" y2="504" transform="translate(1427.104 2215.228)" fill="none" stroke="#27bae1" stroke-width="2"/><line x1="504" y2="504" transform="translate(1401.104 2215.228)" fill="none" stroke="#27bae1" stroke-width="2"/><line x1="504" y2="504" transform="translate(1375.104 2215.228)" fill="none" stroke="#27bae1" stroke-width="2"/><line x1="504" y2="504" transform="translate(1349.104 2215.228)" fill="none" stroke="#27bae1" stroke-width="2"/><line x1="504" y2="504" transform="translate(1323.104 2215.228)" fill="none" stroke="#27bae1" stroke-width="2"/><line x1="504" y2="504" transform="translate(1297.104 2215.228)" fill="none" stroke="#27bae1" stroke-width="2"/><line x1="504" y2="504" transform="translate(1271.104 2215.228)" fill="none" stroke="#27bae1" stroke-width="2"/><line x1="504" y2="504" transform="translate(1245.104 2215.228)" fill="none" stroke="#27bae1" stroke-width="2"/><line x1="504" y2="504" transform="translate(1219.104 2215.228)" fill="none" stroke="#27bae1" stroke-width="2"/><line x1="504" y2="504" transform="translate(1193.104 2215.228)" fill="none" stroke="#27bae1" stroke-width="2"/><line x1="504" y2="504" transform="translate(1167.104 2215.228)" fill="none" stroke="#27bae1" stroke-width="2"/><line x1="504" y2="504" transform="translate(1141.104 2215.228)" fill="none" stroke="#27bae1" stroke-width="2"/><line x1="504" y2="504" transform="translate(1115.104 2215.228)" fill="none" stroke="#27bae1" stroke-width="2"/><line x1="504" y2="504" transform="translate(1089.104 2215.228)" fill="none" stroke="#27bae1" stroke-width="2"/></g></g></g></g></svg>