<svg xmlns="http://www.w3.org/2000/svg" xmlns:xlink="http://www.w3.org/1999/xlink" width="464" height="464" viewBox="0 0 464 464"><defs><clipPath id="a"><rect width="464" height="464" transform="translate(1168 1080)" fill="#fff" stroke="#707070" stroke-width="1"/></clipPath><clipPath id="b"><rect width="528.414" height="505.414" fill="none"/></clipPath></defs><g transform="translate(-1168 -1080)" clip-path="url(#a)"><g transform="translate(1156.293 -11.293)"><g transform="translate(-0.707 1063.293)" clip-path="url(#b)"><g transform="translate(0.707 -1063.293)"><line y1="504" x2="504" transform="translate(0 1064)" fill="none" stroke="#3ac5e6" stroke-width="2"/></g><g transform="translate(26.707 -1063.293)"><line y1="504" x2="504" transform="translate(0 1064)" fill="none" stroke="#3ac5e6" stroke-width="2"/></g><g transform="translate(52.707 -1063.293)"><line y1="504" x2="504" transform="translate(0 1064)" fill="none" stroke="#3ac5e6" stroke-width="2"/></g><g transform="translate(78.707 -1063.293)"><line y1="504" x2="504" transform="translate(0 1064)" fill="none" stroke="#3ac5e6" stroke-width="2"/></g><g transform="translate(104.707 -1063.293)"><line y1="504" x2="504" transform="translate(0 1064)" fill="none" stroke="#3ac5e6" stroke-width="2"/></g><g transform="translate(130.707 -1063.293)"><line y1="504" x2="504" transform="translate(0 1064)" fill="none" stroke="#3ac5e6" stroke-width="2"/></g><g transform="translate(156.707 -1063.293)"><line y1="504" x2="504" transform="translate(0 1064)" fill="none" stroke="#3ac5e6" stroke-width="2"/></g><g transform="translate(182.707 -1063.293)"><line y1="504" x2="504" transform="translate(0 1064)" fill="none" stroke="#3ac5e6" stroke-width="2"/></g><g transform="translate(208.707 -1063.293)"><line y1="504" x2="504" transform="translate(0 1064)" fill="none" stroke="#3ac5e6" stroke-width="2"/></g><g transform="translate(234.707 -1063.293)"><line y1="504" x2="504" transform="translate(0 1064)" fill="none" stroke="#3ac5e6" stroke-width="2"/></g><g transform="translate(260.707 -1063.293)"><line y1="504" x2="504" transform="translate(0 1064)" fill="none" stroke="#3ac5e6" stroke-width="2"/></g><g transform="translate(286.707 -1063.293)"><line y1="504" x2="504" transform="translate(0 1064)" fill="none" stroke="#3ac5e6" stroke-width="2"/></g><g transform="translate(312.707 -1063.293)"><line y1="504" x2="504" transform="translate(0 1064)" fill="none" stroke="#3ac5e6" stroke-width="2"/></g><g transform="translate(338.707 -1063.293)"><line y1="504" x2="504" transform="translate(0 1064)" fill="none" stroke="#3ac5e6" stroke-width="2"/></g><g transform="translate(364.707 -1063.293)"><line y1="504" x2="504" transform="translate(0 1064)" fill="none" stroke="#3ac5e6" stroke-width="2"/></g><g transform="translate(390.707 -1063.293)"><line y1="504" x2="504" transform="translate(0 1064)" fill="none" stroke="#3ac5e6" stroke-width="2"/></g><g transform="translate(416.707 -1063.293)"><line y1="504" x2="504" transform="translate(0 1064)" fill="none" stroke="#3ac5e6" stroke-width="2"/></g><g transform="translate(442.707 -1063.293)"><line y1="504" x2="504" transform="translate(0 1064)" fill="none" stroke="#3ac5e6" stroke-width="2"/></g><g transform="translate(468.707 -1063.293)"><line y1="504" x2="504" transform="translate(0 1064)" fill="none" stroke="#3ac5e6" stroke-width="2"/></g><g transform="translate(494.707 -1063.293)"><line y1="504" x2="504" transform="translate(0 1064)" fill="none" stroke="#3ac5e6" stroke-width="2"/></g><g transform="translate(520.707 -1063.293)"><line y1="504" x2="504" transform="translate(0 1064)" fill="none" stroke="#3ac5e6" stroke-width="2"/></g></g><g transform="translate(479.707 2632) rotate(180)"><g transform="translate(-0.707 1063.293)" clip-path="url(#b)"><g transform="translate(0.707 -1063.293)"><line y1="504" x2="504" transform="translate(0 1064)" fill="none" stroke="#3ac5e6" stroke-width="2"/></g><g transform="translate(26.707 -1063.293)"><line y1="504" x2="504" transform="translate(0 1064)" fill="none" stroke="#3ac5e6" stroke-width="2"/></g><g transform="translate(52.707 -1063.293)"><line y1="504" x2="504" transform="translate(0 1064)" fill="none" stroke="#3ac5e6" stroke-width="2"/></g><g transform="translate(78.707 -1063.293)"><line y1="504" x2="504" transform="translate(0 1064)" fill="none" stroke="#3ac5e6" stroke-width="2"/></g><g transform="translate(104.707 -1063.293)"><line y1="504" x2="504" transform="translate(0 1064)" fill="none" stroke="#3ac5e6" stroke-width="2"/></g><g transform="translate(130.707 -1063.293)"><line y1="504" x2="504" transform="translate(0 1064)" fill="none" stroke="#3ac5e6" stroke-width="2"/></g><g transform="translate(156.707 -1063.293)"><line y1="504" x2="504" transform="translate(0 1064)" fill="none" stroke="#3ac5e6" stroke-width="2"/></g><g transform="translate(182.707 -1063.293)"><line y1="504" x2="504" transform="translate(0 1064)" fill="none" stroke="#3ac5e6" stroke-width="2"/></g><g transform="translate(208.707 -1063.293)"><line y1="504" x2="504" transform="translate(0 1064)" fill="none" stroke="#3ac5e6" stroke-width="2"/></g><g transform="translate(234.707 -1063.293)"><line y1="504" x2="504" transform="translate(0 1064)" fill="none" stroke="#3ac5e6" stroke-width="2"/></g><g transform="translate(260.707 -1063.293)"><line y1="504" x2="504" transform="translate(0 1064)" fill="none" stroke="#3ac5e6" stroke-width="2"/></g><g transform="translate(286.707 -1063.293)"><line y1="504" x2="504" transform="translate(0 1064)" fill="none" stroke="#3ac5e6" stroke-width="2"/></g><g transform="translate(312.707 -1063.293)"><line y1="504" x2="504" transform="translate(0 1064)" fill="none" stroke="#3ac5e6" stroke-width="2"/></g><g transform="translate(338.707 -1063.293)"><line y1="504" x2="504" transform="translate(0 1064)" fill="none" stroke="#3ac5e6" stroke-width="2"/></g><g transform="translate(364.707 -1063.293)"><line y1="504" x2="504" transform="translate(0 1064)" fill="none" stroke="#3ac5e6" stroke-width="2"/></g><g transform="translate(390.707 -1063.293)"><line y1="504" x2="504" transform="translate(0 1064)" fill="none" stroke="#3ac5e6" stroke-width="2"/></g><g transform="translate(416.707 -1063.293)"><line y1="504" x2="504" transform="translate(0 1064)" fill="none" stroke="#3ac5e6" stroke-width="2"/></g><g transform="translate(442.707 -1063.293)"><line y1="504" x2="504" transform="translate(0 1064)" fill="none" stroke="#3ac5e6" stroke-width="2"/></g><g transform="translate(468.707 -1063.293)"><line y1="504" x2="504" transform="translate(0 1064)" fill="none" stroke="#3ac5e6" stroke-width="2"/></g><g transform="translate(494.707 -1063.293)"><line y1="504" x2="504" transform="translate(0 1064)" fill="none" stroke="#3ac5e6" stroke-width="2"/></g><g transform="translate(520.707 -1063.293)"><line y1="504" x2="504" transform="translate(0 1064)" fill="none" stroke="#3ac5e6" stroke-width="2"/></g></g></g></g></g></svg>